<svg xmlns="http://www.w3.org/2000/svg" width="2000" height="2000" preserveAspectRatio="xMidYMid meet" version="1.0" viewBox="0 0 1500 1500"><metadata>Created by potrace 1.14, written by Peter Selinger 2001-2017</metadata><g fill="#000" stroke="none"><path d="M3587 14353 c-135 -23 -209 -79 -223 -169 -11 -73 19 -137 116 -254 56 -68 58 -70 155 -155 138 -122 334 -259 570 -399 207 -123 333 -188 542 -282 81 -36 176 -79 209 -95 34 -15 96 -42 138 -59 112 -44 187 -84 219 -115 46 -47 39 -74 -69 -241 -106 -165 -217 -383 -263 -515 -57 -167 -84 -310 -85 -464 -1 -124 5 -206 18 -270 73 -349 279 -642 641 -910 269 -200 560 -342 994 -485 190 -62 231 -84 245 -128 6 -18 1 -30 -27 -56 -52 -49 -113 -76 -437 -191 -470 -167 -784 -299 -1185 -495 -285 -140 -626 -329 -805 -445 -19 -12 -93 -60 -165 -105 -134 -85 -303 -201 -435 -298 -69 -51 -359 -280 -370 -292 -3 -3 -54 -48 -115 -100 -128 -111 -474 -453 -596 -590 -246 -276 -441 -537 -648 -865 -101 -161 -267 -485 -360 -703 -83 -196 -196 -531 -236 -699 -3 -10 -9 -38 -16 -63 -6 -25 -12 -54 -15 -65 -2 -11 -6 -31 -9 -45 -3 -14 -7 -36 -10 -50 -3 -14 -7 -36 -10 -50 -9 -43 -14 -73 -20 -115 -3 -22 -10 -67 -15 -100 -8 -58 -13 -105 -26 -245 -7 -84 -7 -415 0 -505 29 -355 87 -623 198 -905 190 -484 588 -950 1038 -1217 63 -37 272 -142 345 -174 154 -65 381 -141 540 -179 112 -27 120 -29 175 -40 25 -5 56 -12 70 -15 97 -20 228 -41 320 -50 36 -3 79 -8 95 -10 209 -26 841 -21 1090 9 28 3 70 8 95 11 108 11 146 15 165 19 11 2 40 7 65 11 25 3 59 9 75 11 17 3 41 7 55 9 22 3 92 15 220 39 61 11 386 77 400 81 13 4 51 13 210 50 70 16 237 60 289 76 34 10 73 21 85 23 64 13 457 140 681 221 159 58 406 157 580 234 226 99 215 94 480 227 398 201 736 399 1119 658 258 175 348 239 701 501 309 229 494 370 575 438 8 7 62 49 120 94 58 45 114 90 125 100 11 10 40 34 65 53 25 19 47 37 50 40 3 3 52 44 110 90 126 102 116 94 265 220 66 57 145 123 174 149 30 25 67 57 82 71 15 14 45 39 66 57 72 59 188 162 448 400 115 104 144 131 355 332 96 92 206 196 245 232 100 92 421 413 486 485 160 179 260 304 288 360 57 114 -14 212 -149 205 -133 -6 -502 -280 -850 -630 -102 -103 -219 -216 -260 -251 -41 -36 -77 -67 -80 -70 -3 -3 -57 -50 -120 -105 -63 -55 -120 -104 -126 -110 -60 -54 -291 -253 -503 -434 -30 -25 -91 -77 -135 -116 -321 -278 -864 -722 -1236 -1011 -269 -209 -635 -484 -681 -511 -16 -10 -29 -21 -29 -25 0 -4 -6 -8 -14 -8 -8 0 -16 -4 -18 -9 -10 -27 -647 -449 -899 -596 -63 -36 -123 -72 -134 -78 -74 -45 -107 -63 -221 -123 -71 -37 -133 -70 -139 -75 -5 -4 -73 -39 -150 -77 -615 -308 -1279 -554 -1885 -698 -144 -35 -498 -107 -575 -117 -22 -3 -69 -10 -105 -16 -36 -5 -83 -13 -105 -16 -23 -3 -50 -7 -62 -9 -12 -3 -53 -8 -90 -12 -37 -4 -81 -8 -98 -10 -16 -2 -75 -6 -130 -9 -55 -3 -134 -8 -175 -10 -90 -5 -341 -5 -425 0 -103 6 -221 16 -246 19 -13 2 -49 7 -79 11 -30 4 -71 9 -90 11 -270 34 -564 125 -800 247 -410 213 -703 504 -899 896 -103 203 -205 500 -245 711 -3 14 -10 50 -16 80 -6 30 -13 71 -16 90 -3 19 -11 73 -19 120 -8 47 -16 112 -19 145 -3 33 -9 92 -13 130 -15 152 -7 648 12 740 2 11 6 38 9 60 16 133 56 324 96 460 12 39 23 75 24 80 2 6 5 17 8 25 3 8 21 58 38 110 215 629 616 1251 1141 1768 299 295 471 444 774 672 277 208 778 526 1025 649 25 13 90 47 145 77 94 51 378 192 510 254 125 59 346 153 505 216 91 36 174 69 185 73 11 5 31 13 45 20 60 27 495 175 705 240 143 44 462 133 540 151 28 7 57 13 65 15 105 25 291 68 310 72 153 28 341 65 400 79 40 9 77 17 84 18 6 2 31 9 56 16 25 7 50 14 57 16 38 7 120 39 135 51 27 24 41 79 33 131 -10 67 -61 115 -140 133 -33 7 -67 14 -75 16 -43 10 -182 3 -231 -11 -58 -17 -68 -19 -159 -36 -202 -36 -519 -34 -745 6 -44 8 -104 19 -133 24 -275 48 -687 192 -990 346 -156 79 -377 216 -472 293 -260 210 -415 453 -448 706 -9 67 -8 228 1 290 27 176 115 402 236 608 102 173 164 229 255 232 52 2 105 -9 331 -70 119 -32 284 -70 345 -81 14 -2 54 -11 90 -19 89 -19 350 -61 434 -70 38 -4 79 -9 90 -11 38 -6 100 -13 181 -19 44 -4 91 -8 105 -11 49 -7 390 -18 605 -18 201 0 425 8 500 19 17 2 53 6 80 9 49 6 204 29 275 41 19 3 53 11 75 17 22 5 51 12 65 14 99 18 298 79 380 117 348 164 501 396 420 637 -54 159 -214 322 -418 424 -146 74 -472 166 -677 191 -27 3 -57 8 -65 10 -14 3 -99 11 -220 21 -62 5 -463 4 -530 -1 -242 -19 -389 -35 -545 -61 -514 -85 -982 -232 -1423 -445 -91 -44 -195 -87 -232 -96 -219 -51 -551 68 -1105 400 -352 210 -639 423 -830 614 -159 159 -207 180 -348 156z m5060 -946 c11 -3 43 -9 70 -12 26 -4 75 -14 108 -22 33 -7 70 -16 81 -18 88 -19 283 -114 355 -172 171 -139 147 -302 -56 -394 -113 -51 -317 -101 -465 -114 -41 -4 -88 -9 -105 -11 -175 -23 -841 -23 -975 0 -14 3 -50 7 -81 11 -31 3 -65 7 -75 9 -11 2 -50 7 -89 11 -38 4 -79 9 -90 11 -28 5 -123 22 -165 29 -19 3 -94 19 -166 36 -73 16 -140 32 -150 34 -11 2 -44 11 -74 20 -30 9 -62 17 -70 19 -116 28 -186 59 -195 86 -20 63 204 200 473 290 144 47 389 109 502 125 14 2 68 10 120 19 100 15 194 26 270 31 95 6 215 17 217 19 5 5 539 -1 560 -7z" transform="translate(0.000000,1500.000000) scale(0.100000,-0.100000)"/></g></svg>