<svg xmlns="http://www.w3.org/2000/svg" xmlns:xlink="http://www.w3.org/1999/xlink" width="500" height="500" version="1.2" viewBox="0 0 375 375"><defs><clipPath id="clip1"><path d="M 91 45 L 278 45 L 278 283 L 91 283 Z M 91 45"/></clipPath><clipPath id="clip2"><path d="M 37.5 99.449219 L 272.875 33.265625 L 337.632812 263.585938 L 102.261719 329.765625 Z M 37.5 99.449219"/></clipPath><clipPath id="clip3"><path d="M 37.5 99.449219 L 272.875 33.265625 L 337.632812 263.585938 L 102.261719 329.765625 Z M 37.5 99.449219"/></clipPath><clipPath id="clip4"><path d="M 105 50 L 278 50 L 278 283 L 105 283 Z M 105 50"/></clipPath><clipPath id="clip5"><path d="M 37.5 99.449219 L 272.875 33.265625 L 337.632812 263.585938 L 102.261719 329.765625 Z M 37.5 99.449219"/></clipPath><clipPath id="clip6"><path d="M 37.5 99.449219 L 272.875 33.265625 L 337.632812 263.585938 L 102.261719 329.765625 Z M 37.5 99.449219"/></clipPath><clipPath id="clip7"><path d="M 102 97 L 191 97 L 191 330 L 102 330 Z M 102 97"/></clipPath><clipPath id="clip8"><path d="M 37.5 99.449219 L 272.875 33.265625 L 337.632812 263.585938 L 102.261719 329.765625 Z M 37.5 99.449219"/></clipPath><clipPath id="clip9"><path d="M 37.5 99.449219 L 272.875 33.265625 L 337.632812 263.585938 L 102.261719 329.765625 Z M 37.5 99.449219"/></clipPath><clipPath id="clip10"><path d="M 103 97 L 191 97 L 191 330 L 103 330 Z M 103 97"/></clipPath><clipPath id="clip11"><path d="M 37.5 99.449219 L 272.875 33.265625 L 337.632812 263.585938 L 102.261719 329.765625 Z M 37.5 99.449219"/></clipPath><clipPath id="clip12"><path d="M 37.5 99.449219 L 272.875 33.265625 L 337.632812 263.585938 L 102.261719 329.765625 Z M 37.5 99.449219"/></clipPath><clipPath id="clip13"><path d="M 90 296 L 280 296 L 280 336 L 90 336 Z M 90 296"/></clipPath><clipPath id="clip14"><path d="M 87.902344 315.105469 L 278.625 293.003906 L 281.734375 319.824219 L 91.011719 341.925781 Z M 87.902344 315.105469"/></clipPath><clipPath id="clip15"><path d="M 87.902344 315.105469 L 278.625 293.003906 L 281.734375 319.824219 L 91.011719 341.925781 Z M 87.902344 315.105469"/></clipPath></defs><g id="surface1"><g clip-path="url(#clip1)" clip-rule="nonzero"><g clip-path="url(#clip2)" clip-rule="nonzero"><g clip-path="url(#clip3)" clip-rule="nonzero"><path style="stroke:none;fill-rule:nonzero;fill:#cdc8e4;fill-opacity:1" d="M 277.613281 50.378906 C 277.535156 50.464844 277.457031 50.542969 277.378906 50.625 C 272.152344 56.070312 267.035156 60.648438 262.234375 65.394531 C 247.980469 79.5 234.757812 94.535156 222.273438 110.1875 C 215.453125 107.519531 208.710938 104.292969 202.109375 100.542969 C 202.242188 100.652344 202.367188 100.765625 202.503906 100.878906 C 207.886719 105.554688 213.546875 109.855469 219.4375 113.761719 C 219.417969 113.789062 219.398438 113.8125 219.378906 113.832031 C 217.1875 116.621094 215.023438 119.433594 212.875 122.25 C 206.367188 119.378906 199.917969 116.140625 193.558594 112.527344 C 193.6875 112.636719 193.816406 112.746094 193.945312 112.859375 C 199.183594 117.410156 204.628906 121.707031 210.25 125.726562 C 210.230469 125.75 210.214844 125.773438 210.199219 125.792969 C 199.398438 140.164062 189.136719 154.9375 179.179688 169.890625 C 166.847656 188.410156 154.957031 207.226562 142.992188 226.003906 C 134.628906 239.117188 126.683594 253.84375 117.546875 267.136719 C 115.882812 267.078125 114.203125 266.945312 112.511719 266.742188 C 112.597656 266.796875 112.691406 266.855469 112.796875 266.925781 C 114.257812 267.855469 117.8125 270.03125 118.992188 270.707031 C 118.957031 270.722656 118.917969 270.742188 118.882812 270.757812 C 114.957031 272.605469 110.996094 276.183594 108.242188 279.480469 C 108.242188 279.484375 108.238281 279.484375 108.238281 279.488281 C 107.445312 280.441406 106.636719 281.386719 105.808594 282.304688 C 105.78125 282.335938 105.75 282.371094 105.722656 282.402344 C 105.640625 282.496094 105.25 281.179688 104.273438 279.457031 C 104.273438 279.449219 104.269531 279.449219 104.269531 279.445312 C 102.160156 275.722656 95.359375 267.527344 91.136719 250.621094 C 94.074219 252.046875 101.226562 254.507812 104.535156 255.222656 C 100.769531 253.625 97.441406 251.53125 94.601562 249.089844 C 94.125 246.492188 93.730469 243.882812 93.414062 241.246094 C 91.738281 227.050781 91.808594 212.71875 93.585938 198.554688 C 97.082031 170.214844 107.15625 142.226562 123.597656 117.414062 C 127.730469 111.234375 132.210938 105.234375 137.105469 99.550781 C 138.03125 98.472656 138.972656 97.414062 139.929688 96.359375 C 146.480469 101.800781 153.636719 106.832031 161.375 111.335938 C 155.734375 104.296875 150.792969 96.96875 146.539062 89.4375 C 164.714844 71.464844 187.039062 57.398438 211.738281 50.625 C 213.023438 50.269531 214.320312 49.945312 215.628906 49.625 C 218 55.714844 220.988281 61.664062 224.632812 67.382812 C 225.566406 60.640625 226.609375 53.90625 227.761719 47.1875 C 236.980469 45.769531 246.46875 45.28125 255.746094 46.078125 C 263.101562 46.667969 270.390625 47.992188 277.613281 50.378906"/></g></g></g><g clip-path="url(#clip4)" clip-rule="nonzero"><g clip-path="url(#clip5)" clip-rule="nonzero"><g clip-path="url(#clip6)" clip-rule="nonzero"><path style="stroke:none;fill-rule:nonzero;fill:#b5add7;fill-opacity:1" d="M 277.6875 50.539062 C 272.378906 56.09375 267.183594 60.738281 262.308594 65.554688 C 248.054688 79.660156 234.835938 94.691406 222.347656 110.347656 C 215.636719 107.71875 209 104.554688 202.5 100.878906 C 202.394531 100.820312 202.292969 100.757812 202.1875 100.703125 C 207.648438 105.46875 213.398438 109.851562 219.378906 113.832031 C 219.421875 113.863281 219.464844 113.890625 219.511719 113.921875 C 217.300781 116.734375 215.121094 119.566406 212.949219 122.410156 C 206.546875 119.582031 200.203125 116.402344 193.945312 112.859375 C 193.839844 112.800781 193.738281 112.742188 193.636719 112.683594 C 198.953125 117.328125 204.488281 121.699219 210.199219 125.792969 C 199.398438 140.164062 189.136719 154.9375 179.179688 169.890625 C 166.847656 188.410156 154.957031 207.226562 142.992188 226.003906 C 134.628906 239.117188 126.683594 253.84375 117.546875 267.136719 C 115.882812 267.078125 114.203125 266.945312 112.511719 266.742188 C 112.597656 266.796875 112.691406 266.855469 112.796875 266.921875 C 112.726562 266.917969 112.660156 266.910156 112.589844 266.898438 C 113.753906 267.65625 117.449219 269.929688 118.882812 270.757812 C 118.949219 270.796875 119.011719 270.832031 119.066406 270.867188 C 115.105469 272.699219 111.097656 276.3125 108.320312 279.640625 C 108.316406 279.644531 108.3125 279.644531 108.3125 279.648438 C 107.492188 280.636719 106.652344 281.609375 105.792969 282.558594 C 105.792969 282.558594 105.796875 282.472656 105.808594 282.304688 C 106.21875 274.5625 117.574219 93.421875 277.378906 50.625 C 277.480469 50.59375 277.582031 50.566406 277.6875 50.539062"/></g></g></g><g clip-path="url(#clip7)" clip-rule="nonzero"><g clip-path="url(#clip8)" clip-rule="nonzero"><g clip-path="url(#clip9)" clip-rule="nonzero"><path style="stroke:none;fill-rule:nonzero;fill:#cdc8e4;fill-opacity:1" d="M 190.015625 97.433594 C 182.476562 104.890625 175.429688 112.796875 168.789062 121.003906 C 162.148438 129.207031 155.910156 137.722656 150.304688 146.605469 C 144.660156 155.476562 139.707031 164.710938 135.582031 174.34375 C 133.5 179.160156 131.535156 184.03125 129.757812 188.976562 C 127.945312 193.910156 126.242188 198.882812 124.691406 203.90625 C 121.554688 213.945312 118.933594 224.148438 116.597656 234.417969 C 114.316406 244.703125 112.371094 255.0625 110.714844 265.484375 C 109.96875 270.25 109.277344 275.03125 108.640625 279.824219 C 108.464844 281.160156 108.292969 282.496094 108.121094 283.839844 C 107.285156 290.449219 106.550781 297.078125 105.917969 303.71875 C 105.128906 311.957031 104.484375 320.214844 103.976562 328.484375 C 103.949219 329.007812 103.492188 329.410156 102.96875 329.378906 C 102.457031 329.347656 102.066406 328.921875 102.070312 328.421875 C 102.101562 320.9375 102.296875 313.449219 102.671875 305.96875 C 103.101562 297.246094 103.769531 288.527344 104.675781 279.832031 C 105.191406 274.835938 105.792969 269.839844 106.476562 264.859375 C 107.214844 259.589844 108.015625 254.332031 108.914062 249.082031 C 109.851562 243.84375 110.859375 238.613281 111.984375 233.40625 C 114.214844 222.988281 116.894531 212.65625 120.105469 202.476562 C 123.261719 192.285156 127.023438 182.261719 131.398438 172.5 C 135.6875 162.679688 141.113281 153.347656 147.101562 144.503906 C 153.230469 135.59375 159.964844 127.117188 167.238281 119.164062 C 174.339844 111.398438 181.953125 104.132812 190.015625 97.433594"/></g></g></g><g clip-path="url(#clip10)" clip-rule="nonzero"><g clip-path="url(#clip11)" clip-rule="nonzero"><g clip-path="url(#clip12)" clip-rule="nonzero"><path style="stroke:none;fill-rule:nonzero;fill:#fff;fill-opacity:1" d="M 188.234375 98.933594 C 181.214844 105.980469 174.628906 113.414062 168.398438 121.113281 C 161.757812 129.316406 155.519531 137.832031 149.914062 146.714844 C 144.269531 155.585938 139.316406 164.820312 135.191406 174.453125 C 133.109375 179.273438 131.148438 184.140625 129.367188 189.085938 C 127.554688 194.019531 125.851562 198.992188 124.304688 204.015625 C 121.164062 214.054688 118.542969 224.257812 116.207031 234.527344 C 113.925781 244.8125 111.980469 255.175781 110.328125 265.59375 C 109.578125 270.359375 108.890625 275.140625 108.253906 279.933594 C 108.074219 281.269531 107.902344 282.605469 107.730469 283.949219 C 106.898438 290.558594 106.164062 297.1875 105.527344 303.828125 C 104.738281 312.066406 104.09375 320.324219 103.589844 328.59375 C 103.570312 328.933594 103.367188 329.222656 103.085938 329.371094 C 103.558594 329.34375 103.949219 328.96875 103.976562 328.484375 C 104.484375 320.214844 105.128906 311.957031 105.917969 303.71875 C 106.550781 297.078125 107.285156 290.449219 108.121094 283.839844 C 108.292969 282.496094 108.464844 281.160156 108.640625 279.824219 C 109.277344 275.03125 109.96875 270.25 110.714844 265.484375 C 112.371094 255.0625 114.316406 244.703125 116.597656 234.417969 C 118.933594 224.148438 121.554688 213.945312 124.691406 203.90625 C 126.242188 198.882812 127.945312 193.910156 129.757812 188.976562 C 131.535156 184.03125 133.5 179.160156 135.582031 174.34375 C 139.707031 164.710938 144.660156 155.476562 150.304688 146.605469 C 155.910156 137.722656 162.148438 129.207031 168.789062 121.003906 C 175.429688 112.796875 182.476562 104.890625 190.015625 97.433594 C 189.417969 97.929688 188.824219 98.429688 188.234375 98.933594"/></g></g></g><g clip-path="url(#clip13)" clip-rule="nonzero"><g clip-path="url(#clip14)" clip-rule="nonzero"><g clip-path="url(#clip15)" clip-rule="nonzero"><path style="stroke:none;fill-rule:nonzero;fill:#c9dbeb;fill-opacity:1" d="M 263.277344 300.953125 C 264.472656 300.621094 265.183594 299.761719 265.0625 298.730469 C 264.976562 297.652344 264.042969 296.90625 262.769531 296.898438 C 262.460938 296.894531 262.152344 296.890625 261.847656 296.925781 C 259.914062 297.191406 257.964844 297.339844 256.082031 297.710938 C 242.683594 300.195312 229.777344 304.253906 217.265625 309.703125 C 204.3125 315.359375 191.304688 320.867188 178.304688 326.449219 C 175.550781 327.625 172.691406 328.578125 169.683594 328.574219 C 168.605469 328.585938 167.496094 328.324219 166.460938 328.019531 C 165.621094 327.765625 165.117188 327.085938 165.207031 326.183594 C 165.3125 325.121094 165.5 324.050781 165.882812 323.035156 C 166.582031 321.089844 167.683594 319.292969 168.1875 317.332031 C 169.273438 313.054688 167.8125 309.765625 163.65625 308.152344 C 160.507812 306.925781 157.324219 307.058594 154.09375 307.472656 C 153.222656 307.613281 152.390625 307.75 151.519531 307.886719 C 145.183594 309.089844 139.160156 311.339844 133.246094 313.851562 C 123.4375 318.015625 113.921875 322.730469 105.5625 329.445312 C 104.433594 330.351562 103.3125 331.296875 102.277344 332.347656 C 101.378906 333.269531 101.402344 334.46875 102.152344 335.277344 C 102.941406 336.078125 103.960938 335.921875 105.066406 335.132812 C 108.898438 332.28125 112.628906 329.207031 116.738281 326.75 C 124.769531 321.859375 133.347656 318.070312 142.191406 314.871094 C 147.183594 313.050781 152.230469 311.6875 157.550781 311.34375 C 159.425781 311.242188 161.195312 311.542969 162.910156 312.355469 C 163.808594 312.792969 164.390625 313.503906 164.3125 314.480469 C 164.210938 315.621094 163.996094 316.730469 163.617188 317.785156 C 162.910156 319.691406 161.886719 321.480469 161.335938 323.40625 C 160.011719 327.949219 162.210938 331.617188 166.816406 332.441406 C 168.707031 332.765625 170.691406 332.613281 172.597656 332.429688 C 176.519531 332.015625 180.058594 330.285156 183.621094 328.746094 C 197.433594 322.875 211.152344 316.859375 225.019531 311.097656 C 237.042969 306.089844 249.5625 302.660156 262.519531 301.042969 C 262.75 301.054688 263.015625 301.023438 263.277344 300.953125 Z M 108.515625 318.65625 C 108.308594 317.207031 107.441406 316.375 106.378906 316.535156 C 105.621094 316.625 104.847656 316.945312 104.203125 317.371094 C 101.023438 319.527344 98.289062 322.210938 95.902344 325.246094 C 94.09375 327.589844 92.503906 330.179688 90.914062 332.773438 C 90.234375 333.898438 90.601562 335.0625 91.429688 335.546875 C 92.257812 336.035156 93.269531 335.800781 94.078125 334.773438 C 94.75 333.921875 95.339844 333.035156 95.933594 332.152344 C 99.046875 327.441406 102.738281 323.363281 107.417969 320.183594 C 107.992188 319.804688 108.285156 318.996094 108.515625 318.65625 Z M 278.828125 300.394531 C 278.308594 299.601562 277.023438 299.476562 275.792969 300.164062 C 274.78125 300.746094 273.777344 301.40625 272.765625 301.992188 C 268.519531 304.578125 264.019531 306.34375 259.011719 306.691406 C 258.585938 306.703125 258.171875 306.789062 257.800781 306.910156 C 256.683594 307.234375 256.039062 308.007812 256.117188 309.007812 C 256.195312 310.007812 256.976562 310.769531 258.179688 310.824219 C 259.183594 310.863281 260.175781 310.75 261.171875 310.710938 C 261.175781 310.75 261.21875 310.785156 261.222656 310.824219 C 263.171875 310.324219 265.125 309.90625 267.019531 309.296875 C 271.035156 308.015625 274.65625 306.003906 277.984375 303.445312 C 279.113281 302.535156 279.425781 301.257812 278.828125 300.394531 Z M 278.828125 300.394531"/></g></g></g></g></svg>