<svg id="bb8954da-2896-4465-a575-657f8331bc3f" data-name="Layer 1" xmlns="http://www.w3.org/2000/svg" width="726.7" height="534.2" viewBox="0 0 726.69195 534.19814"><path d="M 576.6 567.3 c -0.4 0.2 -0.9 0.4 -1.3 0.6 a 118.9 118.9 0 0 0 -16.5 9.9 c -0.4 0.3 -0.8 0.6 -1.2 0.9 a 124.7 124.7 0 0 0 -31.5 33.4 c -1.9 2.9 -3.6 5.9 -5.2 9 q -1.9 3.6 -3.5 7.3 c -4.1 9.3 -7.8 20 -15.9 25.7 a 20.4 20.4 0 0 1 -2.7 1.7 c -0.1 0 -0.2 0.1 -0.3 0.1 a 54.7 54.7 0 0 0 -2.4 -15.4 c -0.3 -0.8 -0.5 -1.7 -0.8 -2.5 c -0.1 -0.4 -0.3 -0.8 -0.4 -1.2 a 49.9 49.9 0 0 0 -3.6 -7.6 a 45.9 45.9 0 0 0 -17.1 -17.2 a 73.8 73.8 0 0 1 -7.8 14.4 c 2.4 -5 4.9 -9.8 7.7 -14.5 a 2.8 2.8 0 0 1 0.2 -0.4 c 0.4 -0.7 0.9 -1.4 1.3 -2.1 a 116.6 116.6 0 0 1 25.5 -29.4 a 84.9 84.9 0 0 1 23.2 -13.2 c 16.6 -6.3 35 -7.2 51.1 -0.1 C 575.8 566.9 576.2 567.1 576.6 567.3 Z" transform="translate(-236.7,-182.9)" fill="#f0f0f0"/><path d="M 576.4 567.8 q -0.6 0 -1.1 0.1 a 106 106 0 0 0 -22.9 4.5 c -0.4 0.1 -0.8 0.2 -1.1 0.4 a 105.3 105.3 0 0 0 -28.9 14.6 c -0.1 0.1 -0.2 0.1 -0.3 0.2 q -3.1 2.2 -6 4.7 a 45.4 45.4 0 0 0 -9.6 10.6 a 25.4 25.4 0 0 0 -3.6 11.1 c 0 0.4 -0.1 0.8 -0.1 1.2 c 0 0.3 0 0.6 0 0.9 c -0.1 3 0 6 -0.2 9 a 22.3 22.3 0 0 1 -0.7 4 a 15.1 15.1 0 0 1 -4 6.7 a 16.9 16.9 0 0 1 -2.4 2 c -0.1 -0.4 -0.3 -0.8 -0.4 -1.2 a 16.1 16.1 0 0 0 2.4 -2 a 13.3 13.3 0 0 0 3 -4.8 a 19.3 19.3 0 0 0 1 -4.3 c 0.3 -2.9 0.2 -6 0.3 -8.9 q 0 -1.1 0.1 -2.3 a 26.7 26.7 0 0 1 3.1 -10.8 a 42.1 42.1 0 0 1 9.1 -10.9 a 89.9 89.9 0 0 1 7.1 -5.8 c 0.3 -0.2 0.6 -0.5 1 -0.7 a 108.2 108.2 0 0 1 53.4 -19.4 c 0.4 0 0.7 -0.1 1.1 -0.1 C 577.2 566.6 577.2 567.8 576.4 567.8 Z" transform="translate(-236.7,-182.9)" fill="#ffffff"/><path d="M 521.3 587.4 a 15.9 15.9 0 0 1 2.9 -20.4 c 0.6 -0.5 1.4 0.4 0.8 0.9 a 14.7 14.7 0 0 0 -2.7 18.9 c 0.4 0.6 -0.6 1.2 -1 0.5 Z" transform="translate(-236.7,-182.9)" fill="#ffffff"/><path d="M 502.5 613.9 a 30.6 30.6 0 0 0 22.1 -3.1 c 0.7 -0.4 1.2 0.7 0.5 1 A 31.8 31.8 0 0 1 502.1 615.1 c -0.7 -0.2 -0.4 -1.3 0.4 -1.1 Z" transform="translate(-236.7,-182.9)" fill="#ffffff"/><path d="M 552.2 572.1 a 9 9 0 0 0 6.4 5.6 c 0.7 0.2 0.4 1.3 -0.4 1.1 a 10.1 10.1 0 0 1 -7.1 -6.2 a 0.6 0.6 0 0 1 0.3 -0.8 a 0.6 0.6 0 0 1 0.8 0.3 Z" transform="translate(-236.7,-182.9)" fill="#ffffff"/><path d="M 599.1 655.5 c -0.5 -0.1 -0.9 -0.2 -1.4 -0.3 l 0 0 h 0 a 116.6 116.6 0 0 0 -19.1 -2 h 0 c -0.5 0 -1 0 -1.5 0 h 0 a 124.6 124.6 0 0 0 -45.3 7.8 c 0 0 0 0 0 0 a 119.8 119.8 0 0 0 -16.7 7.7 c -5.7 3.2 -11.6 6.9 -17.8 9.1 a 32.1 32.1 0 0 1 -3.8 1.1 c 0.3 -0.6 0.6 -1.3 0.9 -1.9 a 52.8 52.8 0 0 0 3.8 -14.9 c 0.1 -0.4 0.1 -0.9 0.1 -1.3 c 0.1 -1.6 0.2 -3.2 0.2 -4.8 a 54.7 54.7 0 0 0 -2.4 -15.4 c -0.3 -0.8 -0.5 -1.7 -0.8 -2.5 c -0.1 -0.4 -0.3 -0.8 -0.4 -1.2 a 49.9 49.9 0 0 0 -3.6 -7.6 c 0.9 -0.4 1.8 -0.7 2.8 -1.1 c 2.4 -0.9 4.8 -1.7 7.2 -2.5 h 0 c 0.4 -0.1 0.8 -0.3 1.2 -0.4 a 116.7 116.7 0 0 1 18.4 -4.1 a 101.1 101.1 0 0 1 10.3 -0.9 a 85 85 0 0 1 26.4 3.4 c 0 0 0 0 0.1 0 c 17 5 32.3 15.4 40.8 30.7 C 598.7 654.7 598.9 655.1 599.1 655.5 Z" transform="translate(-236.7,-182.9)" fill="#f0f0f0"/><path d="M 598.6 655.8 c -0.3 -0.2 -0.6 -0.4 -0.9 -0.6 l 0 0 a 105.8 105.8 0 0 0 -21 -10.2 c -0.4 -0.1 -0.8 -0.3 -1.1 -0.4 a 105 105 0 0 0 -31.9 -5.7 c -0.1 0 -0.2 0 -0.3 0 q -3.8 -0.1 -7.6 0.1 a 45.3 45.3 0 0 0 -14 2.7 a 25.3 25.3 0 0 0 -9.6 6.7 c -0.3 0.3 -0.5 0.6 -0.8 0.9 c -0.2 0.3 -0.4 0.5 -0.6 0.7 c -2.7 3.4 -5.1 7.2 -8.6 9.8 c -0.2 0.2 -0.4 0.3 -0.6 0.4 a 14.3 14.3 0 0 1 -3.2 1.7 c 0.1 -0.4 0.1 -0.9 0.1 -1.3 a 12.6 12.6 0 0 0 2.1 -1.1 c 0.4 -0.2 0.7 -0.5 1.1 -0.8 c 3.2 -2.5 5.4 -6 7.9 -9.1 c 0.5 -0.6 0.9 -1.1 1.4 -1.6 a 26.4 26.4 0 0 1 9.1 -6.9 a 41.9 41.9 0 0 1 13.9 -3.2 a 90.2 90.2 0 0 1 9.2 -0.3 q 0.6 0 1.2 0 a 107.9 107.9 0 0 1 32.4 6 a 107.3 107.3 0 0 1 22 10.6 c 0.3 0.2 0.6 0.4 0.9 0.6 C 600 655.3 599.3 656.2 598.6 655.8 Z" transform="translate(-236.7,-182.9)" fill="#ffffff"/><path d="M 542.9 638.2 A 15.9 15.9 0 0 1 557.4 623.7 c 0.8 -0.1 0.9 1.1 0.1 1.2 A 14.7 14.7 0 0 0 544 638.4 c -0.1 0.8 -1.2 0.6 -1.2 -0.2 Z" transform="translate(-236.7,-182.9)" fill="#ffffff"/><path d="M 511.9 648.1 a 30.6 30.6 0 0 0 19.5 10.8 c 0.8 0.1 0.6 1.3 -0.2 1.2 a 31.8 31.8 0 0 1 -20.3 -11.3 c -0.5 -0.6 0.5 -1.3 1 -0.7 Z" transform="translate(-236.7,-182.9)" fill="#ffffff"/><path d="M 576.8 644.6 a 9 9 0 0 0 1.7 8.4 c 0.5 0.6 -0.5 1.3 -1 0.7 a 10.1 10.1 0 0 1 -1.9 -9.2 a 0.6 0.6 0 0 1 0.7 -0.5 a 0.6 0.6 0 0 1 0.5 0.7 Z" transform="translate(-236.7,-182.9)" fill="#ffffff"/><path d="M 283.2 423.1 c -15.5 -22 -20.9 -52.6 -7.8 -76.1 a 123.9 123.9 0 0 0 57.1 63 c 10 5.2 21.7 10 26.1 20.3 c 2.8 6.5 2 14 -0.5 20.5 c -2.5 6.6 -6.6 12.3 -10.7 18 l -0.3 1.7 C 322.5 459.7 298.6 445.1 283.2 423.1 Z" transform="translate(-236.7,-182.9)" fill="#f0f0f0"/><path d="M 275.8 347.2 a 105.9 105.9 0 0 0 20.5 61.8 a 45.6 45.6 0 0 0 10 10.2 a 26.1 26.1 0 0 0 13 4.6 c 4.3 0.4 8.8 0.3 13 1.8 a 16 16 0 0 1 9.4 9.2 c 2.2 5.2 2.4 10.8 2.4 16.4 c 0 6.2 -0.1 12.5 2.7 18.2 c 0.3 0.7 -0.7 1.2 -1.1 0.5 c -4.8 -9.8 -1.3 -21.1 -4 -31.4 c -1.3 -4.8 -4 -9.2 -8.7 -11.3 c -4.1 -1.8 -8.7 -1.7 -13.1 -2.1 a 27.9 27.9 0 0 1 -12.8 -4 a 42.1 42.1 0 0 1 -10.3 -9.8 A 102.7 102.7 0 0 1 281.2 383.1 a 107.7 107.7 0 0 1 -6.5 -36 c 0 -0.8 1.2 -0.6 1.2 0.1 Z" transform="translate(-236.7,-182.9)" fill="#ffffff"/><path d="M 291.8 403.5 a 15.9 15.9 0 0 1 -20.1 -4.2 c -0.5 -0.6 0.5 -1.4 0.9 -0.8 a 14.7 14.7 0 0 0 18.7 3.9 c 0.7 -0.4 1.1 0.7 0.5 1.1 Z" transform="translate(-236.7,-182.9)" fill="#ffffff"/><path d="M 317.1 424 a 30.6 30.6 0 0 0 -1.7 -22.2 c -0.3 -0.7 0.8 -1.2 1.1 -0.5 a 31.8 31.8 0 0 1 1.7 23.2 c -0.2 0.7 -1.3 0.3 -1.1 -0.4 Z" transform="translate(-236.7,-182.9)" fill="#ffffff"/><path d="M 278.5 371.7 a 9 9 0 0 0 6 -6 c 0.2 -0.7 1.3 -0.3 1.1 0.4 a 10.1 10.1 0 0 1 -6.6 6.7 a 0.6 0.6 0 0 1 -0.8 -0.3 a 0.6 0.6 0 0 1 0.3 -0.8 Z" transform="translate(-236.7,-182.9)" fill="#ffffff"/><path d="M 364.8 330.2 c -0.1 0.5 -0.2 0.9 -0.4 1.4 a 118.4 118.4 0 0 0 -3.3 18.9 c -0.1 0.5 -0.1 1 -0.1 1.5 a 124.8 124.8 0 0 0 4.8 45.7 a 121.2 121.2 0 0 0 6.6 17.2 c 3.6 7.7 8.2 15.7 9.1 23.9 a 20.8 20.8 0 0 1 0.1 2.6 l -32.5 29.4 c -0.1 0 -0.2 0.1 -0.3 0.1 l -1.2 1.2 c -0.2 -0.3 -0.3 -0.6 -0.5 -0.8 c -0.1 -0.2 -0.2 -0.3 -0.3 -0.5 c -0.1 -0.1 -0.1 -0.2 -0.2 -0.3 c 0 0 0 -0.1 -0.1 -0.1 c -0.1 -0.1 -0.1 -0.2 -0.2 -0.3 q -1.3 -2.4 -2.6 -4.9 c 0 0 0 0 0 0 c -6.5 -12.5 -12 -25.7 -15.3 -39.3 c -0.1 -0.4 -0.2 -0.8 -0.3 -1.2 a 115.7 115.7 0 0 1 -2.9 -18.7 a 102.3 102.3 0 0 1 -0.2 -10.3 a 85 85 0 0 1 5.1 -26.1 c 6.1 -16.7 17.4 -31.3 33.3 -38.8 C 364 330.6 364.4 330.4 364.8 330.2 Z" transform="translate(-236.7,-182.9)" fill="#f0f0f0"/><path d="M 365.1 330.7 a 105.9 105.9 0 0 0 -20.8 61.7 A 45.6 45.6 0 0 0 346 406.6 a 26.1 26.1 0 0 0 7.6 11.5 c 3.2 2.9 6.8 5.6 9.3 9.3 a 16 16 0 0 1 2 12.9 c -1.4 5.5 -4.6 10.1 -7.9 14.5 c -3.7 4.9 -7.6 10 -8.8 16.1 c -0.1 0.7 -1.3 0.5 -1.2 -0.3 c 2.1 -10.8 11.7 -17.6 15.7 -27.5 c 1.9 -4.6 2.4 -9.8 -0.2 -14.3 c -2.2 -3.9 -6 -6.6 -9.2 -9.6 a 27.9 27.9 0 0 1 -7.8 -11 a 42.1 42.1 0 0 1 -2.3 -14 a 102.7 102.7 0 0 1 4.7 -31.8 a 107.7 107.7 0 0 1 16.5 -32.7 c 0.5 -0.6 1.3 0.2 0.9 0.8 Z" transform="translate(-236.7,-182.9)" fill="#ffffff"/><path d="M 343.9 385.3 a 15.9 15.9 0 0 1 -13.5 -15.5 a 0.6 0.6 0 0 1 1.2 0 A 14.7 14.7 0 0 0 344.2 384.1 c 0.8 0.1 0.5 1.3 -0.3 1.2 Z" transform="translate(-236.7,-182.9)" fill="#ffffff"/><path d="M 351.8 416.8 a 30.6 30.6 0 0 0 12 -18.8 c 0.1 -0.7 1.3 -0.5 1.2 0.3 a 31.8 31.8 0 0 1 -12.6 19.5 c -0.6 0.4 -1.2 -0.6 -0.6 -1 Z" transform="translate(-236.7,-182.9)" fill="#ffffff"/><path d="M 352.5 351.8 a 9 9 0 0 0 8.4 -1.2 c 0.6 -0.5 1.2 0.6 0.6 1 a 10.1 10.1 0 0 1 -9.3 1.3 a 0.6 0.6 0 0 1 -0.4 -0.7 a 0.6 0.6 0 0 1 0.7 -0.4 Z" transform="translate(-236.7,-182.9)" fill="#ffffff"/><path d="M 501.5 654.1 a 58.4 58.4 0 0 0 -3.8 -18.1 c -0.1 -0.4 -0.3 -0.8 -0.5 -1.2 a 55.5 55.5 0 0 0 -3.2 -6.7 a 49.4 49.4 0 0 0 -18.3 -18.6 c -0.1 -0.1 -0.3 -0.2 -0.4 -0.2 a 46.7 46.7 0 0 0 2.3 -21 c -1.8 -14.2 -9.7 -26.8 -19.3 -37.1 c -17.7 -19.1 -42.7 -30.5 -59.9 -50 c -0.2 -0.3 -0.5 -0.5 -0.7 -0.8 c -0.2 -0.3 -0.5 -0.5 -0.7 -0.8 a 79.7 79.7 0 0 1 -6.3 -8.5 a 85.9 85.9 0 0 1 -8.1 -16.2 c -0.7 -2 -1.4 -4 -2 -6 q -0.9 -3 -1.6 -6 q -0.7 -3 -1.1 -6 q -0.5 -3 -0.7 -6 q -0.3 -3 -0.4 -6 a 92.9 92.9 0 0 1 3.8 -28.9 c 0.1 -0.3 0.2 -0.7 0.3 -1 c 0.1 -0.3 0.2 -0.7 0.3 -1 c 0.1 -0.3 0.2 -0.6 0.3 -0.9 c 4.6 -13.8 12.9 -25.5 23.1 -35.8 c 6.4 -6.4 13.3 -12.4 19.9 -18.6 c 0.2 -0.2 0.5 -0.5 0.7 -0.7 c 0.3 -0.2 0.5 -0.5 0.8 -0.7 a 155.5 155.5 0 0 0 11.9 -12.4 a 88.4 88.4 0 0 0 6 -8 c 1.3 -1.9 2.5 -4 3.6 -6 q 1.6 -2.9 3 -6 c 0.8 -2 1.6 -4 2.3 -6 a 56.2 56.2 0 0 0 1.6 -6 a 50.4 50.4 0 0 0 0.9 -6 a 0.1 0.1 0 0 0 0 -0.1 a 40.1 40.1 0 0 0 -8.6 -28.6 c -0.2 -0.3 -0.5 -0.6 -0.8 -0.9 q -0.4 -0.5 -0.8 -0.9 a 40.7 40.7 0 0 0 -4.3 -4.2 c -16.4 -13.9 -37.9 -16.3 -57.8 -22.5 c -0.3 -0.1 -0.6 -0.2 -1 -0.3 c -0.3 -0.1 -0.7 -0.2 -1 -0.3 a 93.8 93.8 0 0 1 -14.9 -6.2 c -0.1 0 -0.1 -0.1 -0.2 -0.1 a 56.2 56.2 0 0 1 -7.7 -5 a 47.3 47.3 0 0 1 -6.5 -6 q -0.8 -0.8 -1.5 -1.7 c -1.1 -1.4 -3 0.3 -2.4 1.7 a 1.5 1.5 0 0 0 0.2 0.4 a 48.8 48.8 0 0 0 5.3 5.6 a 53.4 53.4 0 0 0 8.1 6 a 84.3 84.3 0 0 0 17.9 7.9 c 0.3 0.1 0.7 0.2 1 0.3 c 0.3 0.1 0.6 0.2 1 0.3 c 12 3.8 24.8 6.1 36.2 10.4 c 8.6 3.2 17.3 7.7 23.9 14.3 c 0.3 0.3 0.5 0.6 0.8 0.8 c 0.3 0.3 0.5 0.6 0.8 0.9 a 38 38 0 0 1 4.2 5.8 a 37 37 0 0 1 4.7 22.3 a 49 49 0 0 1 -0.9 6 a 52.8 52.8 0 0 1 -1.7 6 c -0.6 1.8 -1.3 3.6 -2.1 5.3 c -0.1 0.2 -0.2 0.5 -0.3 0.7 q -1.4 3.1 -3.1 6 c -1.2 2.1 -2.5 4.1 -3.9 6 a 130.4 130.4 0 0 1 -16.6 18.6 c -0.3 0.2 -0.5 0.5 -0.8 0.7 c -0.2 0.2 -0.5 0.5 -0.7 0.7 c -10.9 10.2 -22.5 19.9 -31.4 31.9 a 85.2 85.2 0 0 0 -12.6 25.2 c -0.1 0.3 -0.2 0.7 -0.3 1 c -0.1 0.3 -0.2 0.7 -0.3 1 a 95.9 95.9 0 0 0 -3.7 29 c 0.1 2 0.2 4 0.3 6 q 0.3 3 0.7 6 c 0.1 1 0.3 2 0.5 3 c 0.2 1 0.4 2 0.6 3 c 0.4 2 0.9 4 1.5 6 c 0.6 2 1.2 4 1.9 6 a 87.8 87.8 0 0 0 9.8 19.5 c 1.5 2.3 3.1 4.4 4.9 6.5 c 0.2 0.3 0.5 0.6 0.7 0.8 c 0.2 0.3 0.5 0.5 0.7 0.8 c 6.8 7.9 14.9 14.5 23.3 20.8 c 22 16.5 49.8 33.4 55.3 62.8 a 43.5 43.5 0 0 1 -1.7 21.8 a 43.4 43.4 0 0 0 -10 -3.2 a 51.3 51.3 0 0 0 -31.5 4.4 q -0.4 0.2 -0.9 0.5 c -0.3 0.2 -0.6 0.3 -0.9 0.5 a 37.1 37.1 0 0 0 -14.7 14 a 30.8 30.8 0 0 0 -2.6 6 a 30.4 30.4 0 0 0 -1.2 6 c -0.1 0.9 -0.1 1.9 -0.1 2.9 a 25.4 25.4 0 0 0 0.2 3.1 a 22.1 22.1 0 0 0 1.5 6 a 16.6 16.6 0 0 0 3.5 5.4 c 0.2 0.2 0.4 0.4 0.6 0.6 a 17.2 17.2 0 0 0 15.9 3.5 a 26.3 26.3 0 0 0 4.4 -1.6 q 0.7 -0.3 1.4 -0.7 c 0.4 -0.2 0.9 -0.5 1.3 -0.7 a 52.4 52.4 0 0 0 10.6 -8.3 a 140.6 140.6 0 0 0 14.5 -17.1 q 1 -1.3 1.9 -2.7 a 73.8 73.8 0 0 0 7.8 -14.4 a 45.9 45.9 0 0 1 17.1 17.2 a 49.9 49.9 0 0 1 3.6 7.6 c 0.2 0.4 0.3 0.8 0.4 1.2 c 0.3 0.8 0.6 1.7 0.8 2.5 a 54.7 54.7 0 0 1 2.4 15.4 c 0 1.6 0 3.2 -0.2 4.8 c 0 0.4 -0.1 0.9 -0.1 1.3 a 52.8 52.8 0 0 1 -3.8 14.9 c -0.3 0.7 -0.6 1.3 -0.9 1.9 a 64.9 64.9 0 0 1 -24.2 27 a 69.6 69.6 0 0 1 -17.3 7.9 c -1.8 0.6 -1.1 3.5 0.8 2.9 c 19.4 -5.9 36.7 -20.3 44.4 -39 a 56 56 0 0 0 4.1 -16.9 c 0 -0.2 0 -0.3 0 -0.5 c 0 -0.5 0.1 -1 0.1 -1.5 C 501.6 657.2 501.6 655.6 501.5 654.1 Z m -38.9 -27.5 a 138 138 0 0 1 -14.2 16.9 a 57.9 57.9 0 0 1 -7.7 6.6 c -0.4 0.3 -0.8 0.6 -1.3 0.8 c -0.4 0.3 -0.9 0.5 -1.3 0.8 a 24.8 24.8 0 0 1 -7.7 3 a 14.1 14.1 0 0 1 -10.2 -1.8 a 13.1 13.1 0 0 1 -4.7 -5.1 a 5.3 5.3 0 0 1 -0.3 -0.5 a 18 18 0 0 1 -1.5 -5.5 a 23.6 23.6 0 0 1 0 -6 a 28.7 28.7 0 0 1 1.1 -4.9 c 0.1 -0.4 0.2 -0.7 0.3 -1.1 a 27.8 27.8 0 0 1 3 -6 a 36.3 36.3 0 0 1 12.9 -11.7 c 0.3 -0.2 0.6 -0.3 0.9 -0.5 c 0.3 -0.2 0.6 -0.3 0.9 -0.5 a 43.4 43.4 0 0 1 6.9 -2.7 a 45.5 45.5 0 0 1 31.7 2 A 73.5 73.5 0 0 1 462.7 626.6 Z" transform="translate(-236.7,-182.9)" fill="#e4e4e4"/><circle cx="105.5" cy="46" r="45" fill="#ffffff"/><path d="M 342.2 182.9 a 46 46 0 1 0 39.5 69.5 q 0.8 -1.3 1.5 -2.6 a 46 46 0 0 0 -41 -66.8 Z m 0 90 a 44 44 0 1 1 39.1 -23.8 c -0.5 0.9 -1 1.8 -1.5 2.6 A 44 44 0 0 1 342.2 272.9 Z" transform="translate(-236.7,-182.9)" fill="#e4e4e4"/><rect x="317.2" y="213.9" width="50" height="6" rx="3" transform="translate(447.7,250.9) rotate(-180)" fill="#e4e4e4"/><rect x="317.2" y="225.9" width="50" height="6" rx="3" transform="translate(447.7,274.9) rotate(-180)" fill="#e4e4e4"/><rect x="317.2" y="237.9" width="50" height="6" rx="3" transform="translate(447.7,298.9) rotate(180)" fill="#e4e4e4"/><circle cx="141.5" cy="277" r="45" fill="#ffffff"/><path d="M 381.4 414 c -1 -0.1 -2.1 -0.1 -3.1 -0.1 h -0.1 a 46 46 0 1 0 17.5 88.6 c 1 -0.4 1.9 -0.8 2.8 -1.3 a 46 46 0 0 0 -17 -87.2 Z m -3.3 89.9 a 44 44 0 0 1 -0.5 -88 h 0.5 c 0.9 0 1.8 0 2.6 0.1 a 44 44 0 0 1 16.3 83.6 c -0.9 0.5 -1.9 0.9 -2.9 1.2 A 43.7 43.7 0 0 1 378.2 503.9 Z" transform="translate(-236.7,-182.9)" fill="#e4e4e4"/><rect x="353.2" y="444.9" width="50" height="6" rx="3" transform="translate(519.7,712.9) rotate(180)" fill="#e4e4e4"/><rect x="353.2" y="456.9" width="50" height="6" rx="3" transform="translate(519.7,736.9) rotate(180)" fill="#e4e4e4"/><rect x="353.2" y="468.9" width="50" height="6" rx="3" transform="translate(519.7,760.9) rotate(-180)" fill="#e4e4e4"/><circle cx="159.5" cy="456" r="45" fill="#ffffff"/><path d="M 432.9 611.3 c -0.6 -0.8 -1.2 -1.6 -1.8 -2.3 a 46 46 0 1 0 8.4 45.5 a 43.6 43.6 0 0 0 1.3 -4.4 a 45.9 45.9 0 0 0 -7.9 -38.8 Z m -36.8 71.6 a 44 44 0 1 1 33.1 -73 c 0.6 0.7 1.3 1.5 1.9 2.3 a 43.9 43.9 0 0 1 7.1 39.5 a 42 42 0 0 1 -1.5 4.1 A 44.1 44.1 0 0 1 396.2 682.9 Z" transform="translate(-236.7,-182.9)" fill="#e4e4e4"/><rect x="371.2" y="623.9" width="50" height="6" rx="3" transform="translate(555.7,1070.9) rotate(180)" fill="#e4e4e4"/><rect x="371.2" y="635.9" width="50" height="6" rx="3" transform="translate(555.7,1094.9) rotate(180)" fill="#e4e4e4"/><rect x="371.2" y="647.9" width="50" height="6" rx="3" transform="translate(555.7,1118.9) rotate(180)" fill="#e4e4e4"/><circle cx="215.5" cy="139" r="45" fill="#6a5eb2"/><path d="M 452.2 275.9 a 46.2 46.2 0 0 0 -6.9 0.5 c -1.2 0.2 -2.3 0.4 -3.4 0.7 a 46 46 0 0 0 -19.5 79.8 c 0.8 0.7 1.5 1.3 2.4 1.9 a 46 46 0 1 0 27.5 -82.9 Z m 0 90 a 43.7 43.7 0 0 1 -26 -8.5 c -0.8 -0.6 -1.6 -1.2 -2.4 -1.9 a 44 44 0 0 1 19.6 -76.7 c 1.1 -0.2 2.2 -0.4 3.4 -0.6 a 43.5 43.5 0 0 1 5.4 -0.3 a 44 44 0 0 1 0 88 Z" transform="translate(-236.7,-182.9)" fill="#e4e4e4"/><rect x="427.2" y="306.9" width="50" height="6" rx="3" transform="translate(667.7,436.9) rotate(-180)" fill="#ffffff"/><rect x="427.2" y="318.9" width="50" height="6" rx="3" transform="translate(667.7,460.9) rotate(-180)" fill="#ffffff"/><rect x="427.2" y="330.9" width="50" height="6" rx="3" transform="translate(667.7,484.9) rotate(180)" fill="#ffffff"/><polygon opacity="0.2" style="isolation: isolate" points="549.1,179.6 540.3,244.5 531.1,244.9 549.1,179.6"/><rect y="532" width="726.7" height="2.2" fill="#cacaca"/>
</svg>